<?xml version="1.0" standalone="no"?>
<!DOCTYPE svg PUBLIC "-//W3C//DTD SVG 20010904//EN"
 "http://www.w3.org/TR/2001/REC-SVG-20010904/DTD/svg10.dtd">
<svg version="1.0" xmlns="http://www.w3.org/2000/svg"
 width="81.000000pt" height="81.000000pt" viewBox="0 0 81.000000 81.000000"
 preserveAspectRatio="xMidYMid meet">
<metadata>
Created by potrace 1.11, written by Peter Selinger 2001-2013
</metadata>
<g transform="translate(0.000000,81.000000) scale(0.100000,-0.100000)"
fill="#000000" stroke="none">
<path d="M335 791 c-22 -11 -47 -26 -56 -33 -23 -19 -59 -80 -59 -100 0 -13
-9 -18 -32 -19 -66 -1 -121 -33 -162 -93 -22 -33 -26 -50 -26 -108 0 -40 6
-80 14 -96 16 -31 61 -74 93 -91 15 -8 21 -20 21 -40 -1 -16 10 -51 23 -78 64
-129 235 -151 333 -42 21 23 36 49 36 64 0 38 -33 32 -61 -11 -82 -125 -271
-71 -275 79 -2 51 -2 52 -48 74 -83 41 -113 123 -74 201 28 58 88 93 148 87
42 -5 52 4 58 45 9 71 82 130 154 124 60 -5 99 -33 131 -92 25 -46 31 -51 48
-41 15 7 18 16 13 32 -29 94 -89 144 -181 153 -45 4 -67 0 -98 -15z"/>
<path d="M257 527 c-12 -32 9 -35 281 -35 l272 0 0 24 0 24 -274 0 c-220 0
-275 -3 -279 -13z"/>
<path d="M462 387 c3 -22 7 -22 176 -24 l172 -2 0 23 0 24 -176 0 c-174 1
-175 0 -172 -21z"/>
<path d="M357 272 c-9 -2 -17 -12 -17 -23 0 -18 10 -19 235 -19 l235 0 0 23 0
22 -218 0 c-120 0 -226 -1 -235 -3z"/>
</g>
</svg>
